<svg width="317" height="350" fill="none" xmlns="http://www.w3.org/2000/svg" style=""><g clip-path="url(#a)" stroke="#000"><path d="M316.5 50c0 6.673-4.287 13.12-12.255 19.061-7.958 5.936-19.505 11.302-33.819 15.817C241.804 93.909 202.232 99.5 158.5 99.5S75.196 93.907 46.574 84.879c-14.314-4.516-25.861-9.882-33.82-15.818C4.788 63.12.5 56.673.5 50s4.287-13.12 12.255-19.061c7.958-5.936 19.505-11.302 33.819-15.818C75.196 6.092 114.768.5 158.5.5s83.304 5.592 111.926 14.621c14.314 4.516 25.861 9.882 33.819 15.818C312.213 36.88 316.5 43.327 316.5 50Z" class="gpTFKdsy_0"></path><path d="M316.5 100c0 6.673-4.287 13.119-12.255 19.061-7.958 5.936-19.505 11.302-33.819 15.818-28.622 9.029-68.194 14.621-111.926 14.621s-83.304-5.592-111.926-14.621c-14.314-4.516-25.861-9.882-33.82-15.818C4.788 113.119.5 106.673.5 100s4.287-13.12 12.255-19.061c7.958-5.936 19.505-11.302 33.819-15.817C75.196 56.091 114.768 50.5 158.5 50.5s83.304 5.592 111.926 14.621c14.314 4.516 25.861 9.882 33.819 15.818C312.213 86.88 316.5 93.327 316.5 100Z" class="gpTFKdsy_1"></path><path d="M316.5 150c0 6.673-4.287 13.119-12.255 19.061-7.958 5.936-19.505 11.302-33.819 15.818-28.622 9.029-68.194 14.621-111.926 14.621s-83.304-5.592-111.926-14.621c-14.314-4.516-25.861-9.882-33.82-15.818C4.788 163.119.5 156.673.5 150s4.287-13.119 12.255-19.061c7.958-5.936 19.505-11.302 33.819-15.818C75.196 106.092 114.768 100.5 158.5 100.5s83.304 5.592 111.926 14.621c14.314 4.516 25.861 9.882 33.819 15.818 7.968 5.942 12.255 12.388 12.255 19.061Z" class="gpTFKdsy_2"></path><path d="M316.5 200c0 6.673-4.287 13.119-12.255 19.061-7.958 5.936-19.505 11.302-33.819 15.818-28.622 9.029-68.194 14.621-111.926 14.621s-83.304-5.592-111.926-14.621c-14.314-4.516-25.861-9.882-33.82-15.818C4.788 213.119.5 206.673.5 200s4.287-13.119 12.255-19.061c7.958-5.936 19.505-11.302 33.819-15.818C75.196 156.092 114.768 150.5 158.5 150.5s83.304 5.592 111.926 14.621c14.314 4.516 25.861 9.882 33.819 15.818 7.968 5.942 12.255 12.388 12.255 19.061Z" class="gpTFKdsy_3"></path><path d="M316.5 250c0 6.673-4.287 13.119-12.255 19.061-7.958 5.936-19.505 11.302-33.819 15.818-28.622 9.029-68.194 14.621-111.926 14.621s-83.304-5.592-111.926-14.621c-14.314-4.516-25.861-9.882-33.82-15.818C4.788 263.119.5 256.673.5 250s4.287-13.119 12.255-19.061c7.958-5.936 19.505-11.302 33.819-15.818C75.196 206.092 114.768 200.5 158.5 200.5s83.304 5.592 111.926 14.621c14.314 4.516 25.861 9.882 33.819 15.818 7.968 5.942 12.255 12.388 12.255 19.061Z" class="gpTFKdsy_4"></path><path d="M316.5 300c0 6.673-4.287 13.119-12.255 19.061-7.958 5.936-19.505 11.302-33.819 15.818-28.622 9.029-68.194 14.621-111.926 14.621s-83.304-5.592-111.926-14.621c-14.314-4.516-25.861-9.882-33.82-15.818C4.788 313.119.5 306.673.5 300s4.287-13.119 12.255-19.061c7.958-5.936 19.505-11.302 33.819-15.818C75.196 256.092 114.768 250.5 158.5 250.5s83.304 5.592 111.926 14.621c14.314 4.516 25.861 9.882 33.819 15.818 7.968 5.942 12.255 12.388 12.255 19.061Z" class="gpTFKdsy_5"></path></g><defs><clipPath id="a"><path fill="#fff" d="M0 0h317v350H0z" class="gpTFKdsy_6"></path></clipPath></defs><style data-made-with="vivus-instant">.gpTFKdsy_0{stroke-dasharray:698 700;stroke-dashoffset:699;animation:gpTFKdsy_draw_0 7200ms ease 0ms infinite,gpTFKdsy_fade 7200ms linear 0ms infinite;}.gpTFKdsy_1{stroke-dasharray:698 700;stroke-dashoffset:699;animation:gpTFKdsy_draw_1 7200ms ease 0ms infinite,gpTFKdsy_fade 7200ms linear 0ms infinite;}.gpTFKdsy_2{stroke-dasharray:698 700;stroke-dashoffset:699;animation:gpTFKdsy_draw_2 7200ms ease 0ms infinite,gpTFKdsy_fade 7200ms linear 0ms infinite;}.gpTFKdsy_3{stroke-dasharray:698 700;stroke-dashoffset:699;animation:gpTFKdsy_draw_3 7200ms ease 0ms infinite,gpTFKdsy_fade 7200ms linear 0ms infinite;}.gpTFKdsy_4{stroke-dasharray:698 700;stroke-dashoffset:699;animation:gpTFKdsy_draw_4 7200ms ease 0ms infinite,gpTFKdsy_fade 7200ms linear 0ms infinite;}.gpTFKdsy_5{stroke-dasharray:698 700;stroke-dashoffset:699;animation:gpTFKdsy_draw_5 7200ms ease 0ms infinite,gpTFKdsy_fade 7200ms linear 0ms infinite;}.gpTFKdsy_6{stroke-dasharray:1334 1336;stroke-dashoffset:1335;animation:gpTFKdsy_draw_6 7200ms ease 0ms infinite,gpTFKdsy_fade 7200ms linear 0ms infinite;}@keyframes gpTFKdsy_draw{100%{stroke-dashoffset:0;}}@keyframes gpTFKdsy_fade{0%{stroke-opacity:1;}94.44444444444444%{stroke-opacity:1;}100%{stroke-opacity:0;}}@keyframes gpTFKdsy_draw_0{11.11111111111111%{stroke-dashoffset: 699}38.88888888888889%{ stroke-dashoffset: 0;}100%{ stroke-dashoffset: 0;}}@keyframes gpTFKdsy_draw_1{13.425925925925924%{stroke-dashoffset: 699}41.2037037037037%{ stroke-dashoffset: 0;}100%{ stroke-dashoffset: 0;}}@keyframes gpTFKdsy_draw_2{15.740740740740739%{stroke-dashoffset: 699}43.51851851851851%{ stroke-dashoffset: 0;}100%{ stroke-dashoffset: 0;}}@keyframes gpTFKdsy_draw_3{18.055555555555554%{stroke-dashoffset: 699}45.83333333333333%{ stroke-dashoffset: 0;}100%{ stroke-dashoffset: 0;}}@keyframes gpTFKdsy_draw_4{20.37037037037037%{stroke-dashoffset: 699}48.148148148148145%{ stroke-dashoffset: 0;}100%{ stroke-dashoffset: 0;}}@keyframes gpTFKdsy_draw_5{22.685185185185183%{stroke-dashoffset: 699}50.462962962962955%{ stroke-dashoffset: 0;}100%{ stroke-dashoffset: 0;}}@keyframes gpTFKdsy_draw_6{25%{stroke-dashoffset: 1335}52.77777777777778%{ stroke-dashoffset: 0;}100%{ stroke-dashoffset: 0;}}</style></svg>
