<svg width="317" height="327" fill="none" xmlns="http://www.w3.org/2000/svg"><g clip-path="url(#a)" stroke="#000"><circle cx="158.5" cy="158.5" r="158"/><path d="M285.5 163.5c0 90.145-56.968 163-127 163-70.031 0-127-72.855-127-163S88.469.5 158.5.5c70.032 0 127 72.855 127 163Z"/><path d="M250.5 163.5c0 45.079-10.338 85.866-27.028 115.366C206.774 308.38 183.784 326.5 158.5 326.5c-25.284 0-48.274-18.12-64.972-47.634C76.838 249.366 66.5 208.579 66.5 163.5c0-45.079 10.338-85.866 27.028-115.366C110.226 18.62 133.216.5 158.5.5c25.284 0 48.274 18.12 64.972 47.634 16.69 29.5 27.028 70.287 27.028 115.366Z"/><path d="M316.5 163.5c0 8.021-4.329 15.722-12.288 22.786-7.958 7.064-19.503 13.447-33.811 18.819C241.787 215.846 202.224 222.5 158.5 222.5c-43.724 0-83.287-6.654-111.9-17.395-14.31-5.372-25.854-11.755-33.812-18.819C4.828 179.222.5 171.521.5 163.5s4.329-15.722 12.288-22.786c7.958-7.064 19.503-13.447 33.811-18.819C75.213 111.154 114.776 104.5 158.5 104.5c43.724 0 83.287 6.654 111.901 17.395 14.308 5.372 25.853 11.755 33.811 18.819 7.959 7.064 12.288 14.765 12.288 22.786Z"/><path d="M316.5 164c0 1.417-.95 2.905-3.018 4.435-2.054 1.52-5.115 3.007-9.106 4.436-7.976 2.855-19.545 5.435-33.874 7.605-28.652 4.339-68.25 7.024-112.002 7.024-43.752 0-83.35-2.685-112.002-7.024-14.33-2.17-25.898-4.75-33.874-7.605-3.99-1.429-7.052-2.916-9.106-4.436C1.45 166.905.5 165.417.5 164c0-1.417.95-2.905 3.018-4.435 2.054-1.52 5.115-3.007 9.106-4.436 7.976-2.855 19.545-5.435 33.874-7.605 28.652-4.339 68.25-7.024 112.002-7.024 43.752 0 83.35 2.685 112.002 7.024 14.329 2.17 25.898 4.75 33.874 7.605 3.991 1.429 7.052 2.916 9.106 4.436 2.068 1.53 3.018 3.018 3.018 4.435Z"/></g><defs><clipPath id="a"><path fill="#fff" d="M0 0h317v327H0z"/></clipPath></defs></svg>