<svg width="317" height="327" fill="none" xmlns="http://www.w3.org/2000/svg" style=""><path stroke="#000" d="M0.5,158.5A158,158 0,1,1 316.5,158.5A158,158 0,1,1 0.5,158.5" class="tvmOszXx_0"></path><path d="M316.5 183.5c0 73.377-70.655 133-158 133S.5 256.877.5 183.5c0-73.377 70.655-133 158-133s158 59.623 158 133Z" stroke="#000" class="tvmOszXx_1"></path><path d="M316.5 208.5c0 29.748-17.614 56.736-46.206 76.309-28.589 19.57-68.113 31.691-111.794 31.691s-83.204-12.121-111.794-31.691C18.114 265.236.5 238.248.5 208.5c0-29.748 17.614-56.736 46.206-76.308C75.296 112.621 114.819 100.5 158.5 100.5s83.205 12.121 111.794 31.692c28.592 19.572 46.206 46.56 46.206 76.308Z" stroke="#000" class="tvmOszXx_2"></path><path d="M316.5 233.5c0 22.78-17.536 43.523-46.157 58.601C241.746 307.167 202.204 316.5 158.5 316.5c-43.704 0-83.246-9.333-111.843-24.399C18.037 277.023.5 256.28.5 233.5s17.536-43.523 46.157-58.601C75.254 159.833 114.796 150.5 158.5 150.5c43.704 0 83.246 9.333 111.843 24.399C298.964 189.977 316.5 210.72 316.5 233.5Z" stroke="#000" class="tvmOszXx_3"></path><path d="M316.5 267c0 6.673-4.287 13.119-12.255 19.061-7.958 5.936-19.505 11.302-33.819 15.818-28.622 9.029-68.194 14.621-111.926 14.621s-83.304-5.592-111.926-14.621c-14.314-4.516-25.861-9.882-33.82-15.818C4.788 280.119.5 273.673.5 267s4.287-13.119 12.255-19.061c7.958-5.936 19.505-11.302 33.819-15.818C75.196 223.092 114.768 217.5 158.5 217.5s83.304 5.592 111.926 14.621c14.314 4.516 25.861 9.882 33.819 15.818 7.968 5.942 12.255 12.388 12.255 19.061Z" stroke="#000" class="tvmOszXx_4"></path><style data-made-with="vivus-instant">.tvmOszXx_0{stroke-dasharray:993 995;stroke-dashoffset:994;animation:tvmOszXx_draw_0 7200ms ease 0ms infinite,tvmOszXx_fade 7200ms linear 0ms infinite;}.tvmOszXx_1{stroke-dasharray:917 919;stroke-dashoffset:918;animation:tvmOszXx_draw_1 7200ms ease 0ms infinite,tvmOszXx_fade 7200ms linear 0ms infinite;}.tvmOszXx_2{stroke-dasharray:844 846;stroke-dashoffset:845;animation:tvmOszXx_draw_2 7200ms ease 0ms infinite,tvmOszXx_fade 7200ms linear 0ms infinite;}.tvmOszXx_3{stroke-dasharray:776 778;stroke-dashoffset:777;animation:tvmOszXx_draw_3 7200ms ease 0ms infinite,tvmOszXx_fade 7200ms linear 0ms infinite;}.tvmOszXx_4{stroke-dasharray:698 700;stroke-dashoffset:699;animation:tvmOszXx_draw_4 7200ms ease 0ms infinite,tvmOszXx_fade 7200ms linear 0ms infinite;}@keyframes tvmOszXx_draw{100%{stroke-dashoffset:0;}}@keyframes tvmOszXx_fade{0%{stroke-opacity:1;}94.44444444444444%{stroke-opacity:1;}100%{stroke-opacity:0;}}@keyframes tvmOszXx_draw_0{11.11111111111111%{stroke-dashoffset: 994}20.89534609024333%{ stroke-dashoffset: 0;}100%{ stroke-dashoffset: 0;}}@keyframes tvmOszXx_draw_1{20.89534609024333%{stroke-dashoffset: 918}29.931490668556588%{ stroke-dashoffset: 0;}100%{ stroke-dashoffset: 0;}}@keyframes tvmOszXx_draw_2{29.931490668556577%{stroke-dashoffset: 845}38.24907473029372%{ stroke-dashoffset: 0;}100%{ stroke-dashoffset: 0;}}@keyframes tvmOszXx_draw_3{38.24907473029373%{stroke-dashoffset: 777}45.89731474919285%{ stroke-dashoffset: 0;}100%{ stroke-dashoffset: 0;}}@keyframes tvmOszXx_draw_4{45.89731474919285%{stroke-dashoffset: 699}52.77777777777778%{ stroke-dashoffset: 0;}100%{ stroke-dashoffset: 0;}}</style></svg>
