<svg width="317" height="317" fill="none" xmlns="http://www.w3.org/2000/svg" style=""><g clip-path="url(#a)" stroke="#000"><path d="M270.43 46.57 45.57 271.43M270.43 271.43 45.57 46.57M79 47l-.196 32.804M46 80l32.804-.196M56 47l-.06 9.94M46 57l9.94-.06M89 57l-.196 32.804M56 90l32.804-.196M139 107l-.196 32.804M106 140l32.804-.196M237 47l.197 32.804M270 80l-32.803-.196M177 107l.197 32.804M210 140l-32.803-.196M260 47l.06 9.94M270 57l-9.94-.06M227 57l.197 32.804M260 90l-32.803-.196M270.43 46.57 45.57 271.43M195.477 90.41l31.819 31.82M89.41 196.477l31.82 31.819M89.41 121.523l31.82-31.82M195.477 227.59l31.819-31.82M79 271l-.196-32.804M46 238l32.804.196M56 271l-.06-9.941M46 261l9.94.059M89 261l-.196-32.804M56 228l32.804.196M139 211l-.196-32.804M106 178l32.804.196M237 271l.197-32.804M270 238l-32.803.196M260 271l.06-9.941M270 261l-9.94.059M227 261l.197-32.804M260 228l-32.803.196M177 211l.197-32.804M210 178l-32.803.196M317 159H-1M158 0v318M181.334 294.058 158 271M134.666 294.058 158 271M165.071 310.321 158 303.334M150.929 310.321l7.071-6.987M181.334 279.915 158 256.858M134.666 279.915 158 256.858M293.058 182.334 270 158.999M293.058 135.665 270 158.999M309.321 166.071 302.334 159M309.321 151.929 302.334 159M278.916 182.334l-23.058-23.335M278.916 135.665l-23.058 23.334M134.666 23.942 158 47M181.334 23.942 158 47M150.929 7.679 158 14.666M165.071 7.679 158 14.666M134.666 38.085 158 61.142M181.334 38.085 158 61.142M22.942 135.666 46 159.001M22.942 182.335 46 159.001M6.679 151.929 13.666 159M6.679 166.071 13.666 159M37.084 135.666l23.058 23.335M37.084 182.335l23.058-23.334M119.394 104.268l-.096 16.03M103.268 120.395l16.03-.096M124.281 109.154l-.096 16.031M108.155 125.281l16.03-.095M196.606 104.268l.096 16.03M212.732 120.395l-16.03-.096M191.719 109.154l.096 16.031M207.846 125.281l-16.031-.095M119.394 213.732l-.096-16.03M103.268 197.605l16.03.096M124.281 208.846l-.096-16.031M108.155 192.719l16.03.095M196.606 213.732l.096-16.03M212.732 197.605l-16.03.096M191.719 208.846l.096-16.031M207.846 192.719l-16.031.095M169.403 225 158 213.732M146.597 225 158 213.732M169.403 218.089 158 206.821M146.597 218.089 158 206.821M224 170.403 212.732 159M224 147.597 212.732 159M217.089 170.403 205.821 159M217.089 147.597 205.821 159M146.597 93 158 104.268M169.403 93 158 104.268M146.597 99.911 158 111.18M169.403 99.911 158 111.18M92 147.597 103.268 159M92 170.403 103.268 159M98.911 147.597 110.18 159M98.911 170.403 110.18 159" class="cmAuvope_0"></path></g><defs><clipPath id="a"><path fill="#fff" d="M0 0h317v317H0z" class="cmAuvope_1"></path></clipPath></defs><style data-made-with="vivus-instant">.cmAuvope_0{stroke-dasharray:3755 3757;stroke-dashoffset:3756;animation:cmAuvope_draw_0 9200ms ease-in-out 0ms infinite,cmAuvope_fade 9200ms linear 0ms infinite;}.cmAuvope_1{stroke-dasharray:1268 1270;stroke-dashoffset:1269;animation:cmAuvope_draw_1 9200ms ease-in-out 0ms infinite,cmAuvope_fade 9200ms linear 0ms infinite;}@keyframes cmAuvope_draw{100%{stroke-dashoffset:0;}}@keyframes cmAuvope_fade{0%{stroke-opacity:1;}95.65217391304348%{stroke-opacity:1;}100%{stroke-opacity:0;}}@keyframes cmAuvope_draw_0{8.695652173913043%{stroke-dashoffset: 3756}63.04347826086957%{ stroke-dashoffset: 0;}100%{ stroke-dashoffset: 0;}}@keyframes cmAuvope_draw_1{8.695652173913043%{stroke-dashoffset: 1269}63.04347826086957%{ stroke-dashoffset: 0;}100%{ stroke-dashoffset: 0;}}</style></svg>