<svg width="317" height="317" fill="none" xmlns="http://www.w3.org/2000/svg"><g clip-path="url(#a)" stroke="#000"><path d="M158 0v318M181 16l-23 31M135 16l23 31M158 0v318M181 16l-23 31M135 16l23 31M270.43 46.57 45.57 271.43M237 80h42l-42 27M237 80V38l-27 42M279 59h-21M180 117l-22 22M200 137l-23 22M258 38v21M194.355 38 158 87M121.645 38 158 87M270.43 46.57 45.57 271.43M230 137h-50M180 87v50"/><path d="M210 107h50l-30.5 30M210 107V57l-30 30M79 80H37l42 27M79 80V38l27 42M37 59h21M136 117l22 22M116 137l23 22M58 38v21M270.43 46.57 45.57 271.43M86 137h50M136 87v50"/><path d="M106 107H56l30.5 30M106 107V57l30 30M237 238h42l-42-27M237 238v42l-27-42M279 259h-21M180 201l-22-22M200 181l-23-22M258 280v-21M230 181h-50M180 231v-50M210 211h50l-30.5-30M210 211v50l-30-30M79 238H37l42-27M79 238v42l27-42M37 259h21M136 201l22-22M116 181l23-22M58 280v-21M86 181h50M136 231v-50M106 211H56l30.5-30M106 211v50l30-30M135 302l23-31M181 302l-23-31M121.645 280 158 231M194.355 280 158 231M317 159H-1M301 182l-31-23M301 136l-31 23M279 195.355l-49-36.354M279 122.646 230 159M15 136l31 23M15 182l31-23M37 122.645l49 36.354M37 195.355l49-36.354M45.57 46.57l224.86 224.86"/></g><defs><clipPath id="a"><path fill="#fff" d="M0 0h317v317H0z"/></clipPath></defs></svg>