<svg width="317" height="317" fill="none" xmlns="http://www.w3.org/2000/svg"><g clip-path="url(#a)" stroke="#000"><path d="M158 0v318M181 16l-23 31M135 16l23 31M158 0v318M218 141v36M98 141v36M140 99h36M140 219h36M181 16l-23 31M135 16l23 31M194.355 38 158 87M121.645 38 158 87M135 302l23-31M181 302l-23-31M135 302l23-31M181 302l-23-31M121.645 280 158 231M194.355 280 158 231M317 159H-1M301 182l-31-23M301 136l-31 23M279 195.355l-49-36.354M279 122.646 230 159M15 136l31 23M15 182l31-23M37 122.645l49 36.354M37 195.355l49-36.354M270.43 46.57 45.57 271.43"/><circle cx="158.5" cy="158.5" r="47"/><circle cx="158.5" cy="158.5" r="17"/><path d="m275.38 74.147-38.184 5.657M242.853 41.62l-5.657 38.184M269.267 99.147l-60.355 8.941M217.853 47.733l-8.941 60.355M40.62 243.853l38.184-5.657M73.147 276.38l5.657-38.184M46.733 218.854l60.355-8.942M98.147 270.267l8.941-60.355M270.43 271.43 45.57 46.57M242.853 276.38l-5.657-38.184M275.38 243.853l-38.184-5.657M217.853 270.268l-8.942-60.355M269.267 218.854l-60.355-8.942M73.147 41.62l5.657 38.184M40.62 74.147l38.184 5.657M98.147 47.732l8.942 60.355M46.733 99.147l60.355 8.942"/></g><defs><clipPath id="a"><path fill="#fff" d="M0 0h317v317H0z"/></clipPath></defs></svg>