<svg width="317" height="327" fill="none" xmlns="http://www.w3.org/2000/svg"><circle cx="158.5" cy="158.5" r="158" stroke="#000"/><path d="M316.5 183.5c0 73.377-70.655 133-158 133S.5 256.877.5 183.5c0-73.377 70.655-133 158-133s158 59.623 158 133Z" stroke="#000"/><path d="M316.5 208.5c0 29.748-17.614 56.736-46.206 76.309-28.589 19.57-68.113 31.691-111.794 31.691s-83.204-12.121-111.794-31.691C18.114 265.236.5 238.248.5 208.5c0-29.748 17.614-56.736 46.206-76.308C75.296 112.621 114.819 100.5 158.5 100.5s83.205 12.121 111.794 31.692c28.592 19.572 46.206 46.56 46.206 76.308Z" stroke="#000"/><path d="M316.5 233.5c0 22.78-17.536 43.523-46.157 58.601C241.746 307.167 202.204 316.5 158.5 316.5c-43.704 0-83.246-9.333-111.843-24.399C18.037 277.023.5 256.28.5 233.5s17.536-43.523 46.157-58.601C75.254 159.833 114.796 150.5 158.5 150.5c43.704 0 83.246 9.333 111.843 24.399C298.964 189.977 316.5 210.72 316.5 233.5Z" stroke="#000"/><path d="M316.5 267c0 6.673-4.287 13.119-12.255 19.061-7.958 5.936-19.505 11.302-33.819 15.818-28.622 9.029-68.194 14.621-111.926 14.621s-83.304-5.592-111.926-14.621c-14.314-4.516-25.861-9.882-33.82-15.818C4.788 280.119.5 273.673.5 267s4.287-13.119 12.255-19.061c7.958-5.936 19.505-11.302 33.819-15.818C75.196 223.092 114.768 217.5 158.5 217.5s83.304 5.592 111.926 14.621c14.314 4.516 25.861 9.882 33.819 15.818 7.968 5.942 12.255 12.388 12.255 19.061Z" stroke="#000"/></svg>
