<svg width="317" height="317" fill="none" xmlns="http://www.w3.org/2000/svg" style=""><g clip-path="url(#a)" stroke="#000"><path d="M182 99h-24M122 123l12-24M194 123l-12-24M158 99h-24M134 219h24M194 195l-12 24M122 195l12 24M158 219h24M98 135v24M122 195l-24-12M122 123l-24 12M98 159v24M218 183v-24M194 123l24 12M194 195l24-12M218 159v-24M270.43 46.57 45.57 271.43M270.43 271.43 45.57 46.57M79 47l-.196 32.804M46 80l32.804-.196M56 47l-.06 9.94M46 57l9.94-.06M89 57l-.196 32.804M56 90l32.804-.196M237 47l.197 32.804M270 80l-32.803-.196M260 47l.06 9.94M270 57l-9.94-.06M227 57l.197 32.804M260 90l-32.803-.196M270.43 46.57 45.57 271.43M210 107h50l-42 28M210 107V57l-28 42M106 107H56l42 28M106 107V57l28 42M210 211h50l-42-28M210 211v50l-28-42M106 211H56l42-28M106 211v50l28-42M79 271l-.196-32.804M46 238l32.804.196M56 271l-.06-9.941M46 261l9.94.059M89 261l-.196-32.804M56 228l32.804.196M237 271l.197-32.804M270 238l-32.803.196M260 271l.06-9.941M270 261l-9.94.059M227 261l.197-32.804M260 228l-32.803.196M317 159H-1M158 0v318M181.334 294.058 158 271M134.666 294.058 158 271M165.071 310.321 158 303.334M150.929 310.321l7.071-6.987M181.334 279.915 158 256.858M134.666 279.915 158 256.858M293.058 182.334 270 158.999M293.058 135.665 270 158.999M309.321 166.071 302.334 159M309.321 151.929 302.334 159M278.916 182.334l-23.058-23.335M278.916 135.665l-23.058 23.334M134.666 23.942 158 47M181.334 23.942 158 47M150.929 7.679 158 14.666M165.071 7.679 158 14.666M134.666 38.085 158 61.142M181.334 38.085 158 61.142M22.942 135.666 46 159.001M22.942 182.335 46 159.001M6.679 151.929 13.666 159M6.679 166.071 13.666 159M37.084 135.666l23.058 23.335M37.084 182.335l23.058-23.334" class="jALiUcZa_0"></path></g><defs><clipPath id="a"><path fill="#fff" d="M0 0h317v317H0z" class="jALiUcZa_1"></path></clipPath></defs><style data-made-with="vivus-instant">.jALiUcZa_0{stroke-dasharray:4010 4012;stroke-dashoffset:4011;animation:jALiUcZa_draw_0 9200ms ease-in-out 0ms infinite,jALiUcZa_fade 9200ms linear 0ms infinite;}.jALiUcZa_1{stroke-dasharray:1268 1270;stroke-dashoffset:1269;animation:jALiUcZa_draw_1 9200ms ease-in-out 0ms infinite,jALiUcZa_fade 9200ms linear 0ms infinite;}@keyframes jALiUcZa_draw{100%{stroke-dashoffset:0;}}@keyframes jALiUcZa_fade{0%{stroke-opacity:1;}95.65217391304348%{stroke-opacity:1;}100%{stroke-opacity:0;}}@keyframes jALiUcZa_draw_0{8.695652173913043%{stroke-dashoffset: 4011}63.04347826086957%{ stroke-dashoffset: 0;}100%{ stroke-dashoffset: 0;}}@keyframes jALiUcZa_draw_1{8.695652173913043%{stroke-dashoffset: 1269}63.04347826086957%{ stroke-dashoffset: 0;}100%{ stroke-dashoffset: 0;}}</style></svg>