<svg width="317" height="327" fill="none" xmlns="http://www.w3.org/2000/svg" style=""><g clip-path="url(#a)" stroke="#000"><path d="M0.5,158.5A158,158 0,1,1 316.5,158.5A158,158 0,1,1 0.5,158.5" class="Rfedmzdr_0"></path><path d="M285.5 163.5c0 90.145-56.968 163-127 163-70.031 0-127-72.855-127-163S88.469.5 158.5.5c70.032 0 127 72.855 127 163Z" class="Rfedmzdr_1"></path><path d="M250.5 163.5c0 45.079-10.338 85.866-27.028 115.366C206.774 308.38 183.784 326.5 158.5 326.5c-25.284 0-48.274-18.12-64.972-47.634C76.838 249.366 66.5 208.579 66.5 163.5c0-45.079 10.338-85.866 27.028-115.366C110.226 18.62 133.216.5 158.5.5c25.284 0 48.274 18.12 64.972 47.634 16.69 29.5 27.028 70.287 27.028 115.366Z" class="Rfedmzdr_2"></path><path d="M316.5 163.5c0 8.021-4.329 15.722-12.288 22.786-7.958 7.064-19.503 13.447-33.811 18.819C241.787 215.846 202.224 222.5 158.5 222.5c-43.724 0-83.287-6.654-111.9-17.395-14.31-5.372-25.854-11.755-33.812-18.819C4.828 179.222.5 171.521.5 163.5s4.329-15.722 12.288-22.786c7.958-7.064 19.503-13.447 33.811-18.819C75.213 111.154 114.776 104.5 158.5 104.5c43.724 0 83.287 6.654 111.901 17.395 14.308 5.372 25.853 11.755 33.811 18.819 7.959 7.064 12.288 14.765 12.288 22.786Z" class="Rfedmzdr_3"></path><path d="M316.5 164c0 1.417-.95 2.905-3.018 4.435-2.054 1.52-5.115 3.007-9.106 4.436-7.976 2.855-19.545 5.435-33.874 7.605-28.652 4.339-68.25 7.024-112.002 7.024-43.752 0-83.35-2.685-112.002-7.024-14.33-2.17-25.898-4.75-33.874-7.605-3.99-1.429-7.052-2.916-9.106-4.436C1.45 166.905.5 165.417.5 164c0-1.417.95-2.905 3.018-4.435 2.054-1.52 5.115-3.007 9.106-4.436 7.976-2.855 19.545-5.435 33.874-7.605 28.652-4.339 68.25-7.024 112.002-7.024 43.752 0 83.35 2.685 112.002 7.024 14.329 2.17 25.898 4.75 33.874 7.605 3.991 1.429 7.052 2.916 9.106 4.436 2.068 1.53 3.018 3.018 3.018 4.435Z" class="Rfedmzdr_4"></path></g><defs><clipPath id="a"><path fill="#fff" d="M0 0h317v327H0z" class="Rfedmzdr_5"></path></clipPath></defs><style data-made-with="vivus-instant">.Rfedmzdr_0{stroke-dasharray:993 995;stroke-dashoffset:994;animation:Rfedmzdr_draw_0 7200ms linear 0ms infinite,Rfedmzdr_fade 7200ms linear 0ms infinite;}.Rfedmzdr_1{stroke-dasharray:915 917;stroke-dashoffset:916;animation:Rfedmzdr_draw_1 7200ms linear 0ms infinite,Rfedmzdr_fade 7200ms linear 0ms infinite;}.Rfedmzdr_2{stroke-dasharray:817 819;stroke-dashoffset:818;animation:Rfedmzdr_draw_2 7200ms linear 0ms infinite,Rfedmzdr_fade 7200ms linear 0ms infinite;}.Rfedmzdr_3{stroke-dasharray:718 720;stroke-dashoffset:719;animation:Rfedmzdr_draw_3 7200ms linear 0ms infinite,Rfedmzdr_fade 7200ms linear 0ms infinite;}.Rfedmzdr_4{stroke-dasharray:652 654;stroke-dashoffset:653;animation:Rfedmzdr_draw_4 7200ms linear 0ms infinite,Rfedmzdr_fade 7200ms linear 0ms infinite;}.Rfedmzdr_5{stroke-dasharray:1288 1290;stroke-dashoffset:1289;animation:Rfedmzdr_draw_5 7200ms linear 0ms infinite,Rfedmzdr_fade 7200ms linear 0ms infinite;}@keyframes Rfedmzdr_draw{100%{stroke-dashoffset:0;}}@keyframes Rfedmzdr_fade{0%{stroke-opacity:1;}94.44444444444444%{stroke-opacity:1;}100%{stroke-opacity:0;}}@keyframes Rfedmzdr_draw_0{11.11111111111111%{stroke-dashoffset: 994}38.88888888888889%{ stroke-dashoffset: 0;}100%{ stroke-dashoffset: 0;}}@keyframes Rfedmzdr_draw_1{13.88888888888889%{stroke-dashoffset: 916}41.66666666666667%{ stroke-dashoffset: 0;}100%{ stroke-dashoffset: 0;}}@keyframes Rfedmzdr_draw_2{16.666666666666664%{stroke-dashoffset: 818}44.44444444444444%{ stroke-dashoffset: 0;}100%{ stroke-dashoffset: 0;}}@keyframes Rfedmzdr_draw_3{19.444444444444446%{stroke-dashoffset: 719}47.22222222222222%{ stroke-dashoffset: 0;}100%{ stroke-dashoffset: 0;}}@keyframes Rfedmzdr_draw_4{22.22222222222222%{stroke-dashoffset: 653}50%{ stroke-dashoffset: 0;}100%{ stroke-dashoffset: 0;}}@keyframes Rfedmzdr_draw_5{25%{stroke-dashoffset: 1289}52.77777777777778%{ stroke-dashoffset: 0;}100%{ stroke-dashoffset: 0;}}</style></svg>