<svg width="317" height="350" fill="none" xmlns="http://www.w3.org/2000/svg"><g clip-path="url(#a)" stroke="#000"><path d="M316.5 50c0 6.673-4.287 13.12-12.255 19.061-7.958 5.936-19.505 11.302-33.819 15.817C241.804 93.909 202.232 99.5 158.5 99.5S75.196 93.907 46.574 84.879c-14.314-4.516-25.861-9.882-33.82-15.818C4.788 63.12.5 56.673.5 50s4.287-13.12 12.255-19.061c7.958-5.936 19.505-11.302 33.819-15.818C75.196 6.092 114.768.5 158.5.5s83.304 5.592 111.926 14.621c14.314 4.516 25.861 9.882 33.819 15.818C312.213 36.88 316.5 43.327 316.5 50Z"/><path d="M316.5 100c0 6.673-4.287 13.119-12.255 19.061-7.958 5.936-19.505 11.302-33.819 15.818-28.622 9.029-68.194 14.621-111.926 14.621s-83.304-5.592-111.926-14.621c-14.314-4.516-25.861-9.882-33.82-15.818C4.788 113.119.5 106.673.5 100s4.287-13.12 12.255-19.061c7.958-5.936 19.505-11.302 33.819-15.817C75.196 56.091 114.768 50.5 158.5 50.5s83.304 5.592 111.926 14.621c14.314 4.516 25.861 9.882 33.819 15.818C312.213 86.88 316.5 93.327 316.5 100Z"/><path d="M316.5 150c0 6.673-4.287 13.119-12.255 19.061-7.958 5.936-19.505 11.302-33.819 15.818-28.622 9.029-68.194 14.621-111.926 14.621s-83.304-5.592-111.926-14.621c-14.314-4.516-25.861-9.882-33.82-15.818C4.788 163.119.5 156.673.5 150s4.287-13.119 12.255-19.061c7.958-5.936 19.505-11.302 33.819-15.818C75.196 106.092 114.768 100.5 158.5 100.5s83.304 5.592 111.926 14.621c14.314 4.516 25.861 9.882 33.819 15.818 7.968 5.942 12.255 12.388 12.255 19.061Z"/><path d="M316.5 200c0 6.673-4.287 13.119-12.255 19.061-7.958 5.936-19.505 11.302-33.819 15.818-28.622 9.029-68.194 14.621-111.926 14.621s-83.304-5.592-111.926-14.621c-14.314-4.516-25.861-9.882-33.82-15.818C4.788 213.119.5 206.673.5 200s4.287-13.119 12.255-19.061c7.958-5.936 19.505-11.302 33.819-15.818C75.196 156.092 114.768 150.5 158.5 150.5s83.304 5.592 111.926 14.621c14.314 4.516 25.861 9.882 33.819 15.818 7.968 5.942 12.255 12.388 12.255 19.061Z"/><path d="M316.5 250c0 6.673-4.287 13.119-12.255 19.061-7.958 5.936-19.505 11.302-33.819 15.818-28.622 9.029-68.194 14.621-111.926 14.621s-83.304-5.592-111.926-14.621c-14.314-4.516-25.861-9.882-33.82-15.818C4.788 263.119.5 256.673.5 250s4.287-13.119 12.255-19.061c7.958-5.936 19.505-11.302 33.819-15.818C75.196 206.092 114.768 200.5 158.5 200.5s83.304 5.592 111.926 14.621c14.314 4.516 25.861 9.882 33.819 15.818 7.968 5.942 12.255 12.388 12.255 19.061Z"/><path d="M316.5 300c0 6.673-4.287 13.119-12.255 19.061-7.958 5.936-19.505 11.302-33.819 15.818-28.622 9.029-68.194 14.621-111.926 14.621s-83.304-5.592-111.926-14.621c-14.314-4.516-25.861-9.882-33.82-15.818C4.788 313.119.5 306.673.5 300s4.287-13.119 12.255-19.061c7.958-5.936 19.505-11.302 33.819-15.818C75.196 256.092 114.768 250.5 158.5 250.5s83.304 5.592 111.926 14.621c14.314 4.516 25.861 9.882 33.819 15.818 7.968 5.942 12.255 12.388 12.255 19.061Z"/></g><defs><clipPath id="a"><path fill="#fff" d="M0 0h317v350H0z"/></clipPath></defs></svg>
