<svg width="317" height="317" fill="none" xmlns="http://www.w3.org/2000/svg" style=""><g clip-path="url(#a)" stroke="#000"><path d="M158 0v318M181 16l-23 31M135 16l23 31M158 0v318M218 141v36M98 141v36M140 99h36M140 219h36M181 16l-23 31M135 16l23 31M194.355 38 158 87M121.645 38 158 87M135 302l23-31M181 302l-23-31M135 302l23-31M181 302l-23-31M121.645 280 158 231M194.355 280 158 231M317 159H-1M301 182l-31-23M301 136l-31 23M279 195.355l-49-36.354M279 122.646 230 159M15 136l31 23M15 182l31-23M37 122.645l49 36.354M37 195.355l49-36.354M270.43 46.57 45.57 271.43" class="oeAhDdIw_0"></path><path d="M111.5,158.5A47,47 0,1,1 205.5,158.5A47,47 0,1,1 111.5,158.5" class="oeAhDdIw_1"></path><path d="M141.5,158.5A17,17 0,1,1 175.5,158.5A17,17 0,1,1 141.5,158.5" class="oeAhDdIw_2"></path><path d="m275.38 74.147-38.184 5.657M242.853 41.62l-5.657 38.184M269.267 99.147l-60.355 8.941M217.853 47.733l-8.941 60.355M40.62 243.853l38.184-5.657M73.147 276.38l5.657-38.184M46.733 218.854l60.355-8.942M98.147 270.267l8.941-60.355M270.43 271.43 45.57 46.57M242.853 276.38l-5.657-38.184M275.38 243.853l-38.184-5.657M217.853 270.268l-8.942-60.355M269.267 218.854l-60.355-8.942M73.147 41.62l5.657 38.184M40.62 74.147l38.184 5.657M98.147 47.732l8.942 60.355M46.733 99.147l60.355 8.942" class="oeAhDdIw_3"></path></g><defs><clipPath id="a"><path fill="#fff" d="M0 0h317v317H0z" class="oeAhDdIw_4"></path></clipPath></defs><style data-made-with="vivus-instant">.oeAhDdIw_0{stroke-dasharray:2368 2370;stroke-dashoffset:2369;animation:oeAhDdIw_draw_0 7200ms ease-in-out 0ms infinite,oeAhDdIw_fade 7200ms linear 0ms infinite;}.oeAhDdIw_1{stroke-dasharray:296 298;stroke-dashoffset:297;animation:oeAhDdIw_draw_1 7200ms ease-in-out 0ms infinite,oeAhDdIw_fade 7200ms linear 0ms infinite;}.oeAhDdIw_2{stroke-dasharray:107 109;stroke-dashoffset:108;animation:oeAhDdIw_draw_2 7200ms ease-in-out 0ms infinite,oeAhDdIw_fade 7200ms linear 0ms infinite;}.oeAhDdIw_3{stroke-dasharray:1115 1117;stroke-dashoffset:1116;animation:oeAhDdIw_draw_3 7200ms ease-in-out 0ms infinite,oeAhDdIw_fade 7200ms linear 0ms infinite;}.oeAhDdIw_4{stroke-dasharray:1268 1270;stroke-dashoffset:1269;animation:oeAhDdIw_draw_4 7200ms ease-in-out 0ms infinite,oeAhDdIw_fade 7200ms linear 0ms infinite;}@keyframes oeAhDdIw_draw{100%{stroke-dashoffset:0;}}@keyframes oeAhDdIw_fade{0%{stroke-opacity:1;}94.44444444444444%{stroke-opacity:1;}100%{stroke-opacity:0;}}@keyframes oeAhDdIw_draw_0{11.11111111111111%{stroke-dashoffset: 2369}38.88888888888889%{ stroke-dashoffset: 0;}100%{ stroke-dashoffset: 0;}}@keyframes oeAhDdIw_draw_1{14.583333333333334%{stroke-dashoffset: 297}42.36111111111111%{ stroke-dashoffset: 0;}100%{ stroke-dashoffset: 0;}}@keyframes oeAhDdIw_draw_2{18.055555555555554%{stroke-dashoffset: 108}45.83333333333333%{ stroke-dashoffset: 0;}100%{ stroke-dashoffset: 0;}}@keyframes oeAhDdIw_draw_3{21.52777777777778%{stroke-dashoffset: 1116}49.30555555555556%{ stroke-dashoffset: 0;}100%{ stroke-dashoffset: 0;}}@keyframes oeAhDdIw_draw_4{25%{stroke-dashoffset: 1269}52.77777777777778%{ stroke-dashoffset: 0;}100%{ stroke-dashoffset: 0;}}</style></svg>