<svg xmlns="http://www.w3.org/2000/svg" width="245" height="40" viewBox="0 0 245 40" fill="none">
  <path d="M0 40V9.82689H2.75392V23.6611H19.8665V9.82689H22.6204V40H19.8665V26.1363H2.75392V40H0Z" fill="black"/>
  <path d="M59.6908 40H56.8043L67.7758 9.82689H70.7212L81.6927 40H78.8062L69.3516 13.407H69.1454L59.6908 40ZM61.7673 28.4346H76.7298V30.9098H61.7673V28.4346ZM68.0262 6.68877L71.7963 0H74.9036L70.3825 6.68877H68.0262Z" fill="black"/>
  <path d="M115.891 40V9.82689H125.626C127.766 9.82689 129.553 10.2149 130.986 10.9908C132.43 11.7569 133.514 12.8226 134.241 14.1878C134.977 15.5433 135.345 17.1001 135.345 18.8582C135.345 20.6163 134.977 22.1682 134.241 23.5138C133.514 24.8594 132.434 25.9104 131.001 26.6667C129.568 27.423 127.791 27.8011 125.67 27.8011H117.379V25.2818H125.596C127.167 25.2818 128.473 25.0215 129.514 24.5009C130.564 23.9804 131.345 23.2388 131.855 22.2762C132.376 21.3137 132.636 20.1743 132.636 18.8582C132.636 17.5421 132.376 16.3929 131.855 15.4107C131.335 14.4187 130.549 13.6525 129.499 13.1123C128.458 12.5721 127.143 12.302 125.552 12.302H118.645V40H115.891ZM129.19 26.3867L136.612 40H133.431L126.082 26.3867H129.19Z" fill="black"/>
  <path d="M171.083 40V9.82689H180.818C182.958 9.82689 184.745 10.2394 186.178 11.0645C187.621 11.8797 188.706 12.9896 189.433 14.3941C190.169 15.7987 190.537 17.38 190.537 19.1381C190.537 20.8963 190.174 22.4825 189.447 23.8969C188.721 25.3014 187.641 26.4162 186.208 27.2413C184.774 28.0565 182.992 28.4641 180.862 28.4641H173.204V25.9889H180.788C182.369 25.9889 183.679 25.6943 184.72 25.105C185.761 24.5058 186.536 23.6906 187.047 22.6593C187.567 21.628 187.828 20.4543 187.828 19.1381C187.828 17.822 187.567 16.6483 187.047 15.6169C186.536 14.5856 185.756 13.7753 184.705 13.186C183.665 12.5967 182.344 12.302 180.744 12.302H173.837V40H171.083Z" fill="black"/>
  <path d="M222.998 40H220.112L231.083 9.82689H234.029L245 40H242.114L232.659 13.407H232.453L222.998 40ZM225.075 28.4346H240.037V30.9098H225.075V28.4346ZM231.334 6.68877L235.104 0H238.211L233.69 6.68877H231.334Z" fill="black"/>
</svg>
