<svg width="138" height="169" viewBox="0 0 138 169" fill="none" xmlns="http://www.w3.org/2000/svg">
<circle cx="68.9997" cy="69.8098" r="42.7546" stroke="white" stroke-width="6"/>
<path d="M96.1288 129.184C119.049 118.837 135 95.7812 135 69C135 32.5492 105.451 3 69 3C32.5492 3 3 32.5492 3 69C3 96.0955 19.3278 119.378 42.681 129.544" stroke="white" stroke-width="6"/>
<path d="M63.7974 13.4577C66.9927 11.5111 71.0073 11.5111 74.2025 13.4577L80.2054 17.1146C81.8411 18.111 83.7286 18.6168 85.6434 18.5717L92.6705 18.4061C96.411 18.318 99.8877 20.3253 101.682 23.6087L105.052 29.7771C105.97 31.4579 107.352 32.8396 109.033 33.758L115.201 37.1282C118.484 38.9221 120.492 42.3988 120.404 46.1393L120.238 53.1664C120.193 55.0812 120.699 56.9687 121.695 58.6044L125.352 64.6073C127.299 67.8025 127.299 71.8171 125.352 75.0123L121.695 81.0152C120.699 82.6509 120.193 84.5384 120.238 86.4532L120.404 93.4803C120.492 97.2208 118.484 100.697 115.201 102.491L109.033 105.862C107.352 106.78 105.97 108.162 105.052 109.843L101.682 116.011C99.8877 119.294 96.411 121.302 92.6705 121.213L85.6434 121.048C83.7286 121.003 81.8411 121.509 80.2054 122.505L74.2025 126.162C71.0073 128.108 66.9927 128.108 63.7974 126.162L57.7946 122.505C56.1588 121.509 54.2714 121.003 52.3565 121.048L45.3295 121.213C41.589 121.302 38.1123 119.294 36.3184 116.011L32.9482 109.843C32.0298 108.162 30.6481 106.78 28.9673 105.862L22.7989 102.491C19.5155 100.697 17.5082 97.2208 17.5963 93.4803L17.7619 86.4532C17.807 84.5384 17.3012 82.6509 16.3047 81.0152L12.6478 75.0123C10.7013 71.8171 10.7013 67.8025 12.6478 64.6073L16.3047 58.6044C17.3012 56.9687 17.807 55.0812 17.7619 53.1664L17.5963 46.1393C17.5082 42.3988 19.5155 38.9221 22.7989 37.1282L28.9673 33.758C30.6481 32.8397 32.0298 31.4579 32.9482 29.7771L36.3184 23.6087C38.1123 20.3253 41.589 18.318 45.3295 18.4061L52.3565 18.5717C54.2714 18.6168 56.1588 18.111 57.7946 17.1146L63.7974 13.4577Z" stroke="white" stroke-width="6"/>
<path d="M42.6807 119.614V164.153L69.4046 154.436L96.1285 164.153V119.614" stroke="white" stroke-width="6"/>
<path d="M96.1285 166.583V122.043H83.1715C82.1997 122.043 73.5886 128.521 69.4046 129.736L57.2574 122.043H42.6807V166.583L69.4046 156.865L96.1285 166.583Z" fill="white" fill-opacity="0.3"/>
<path d="M43.5166 58.0209H45.4006V61.3089H48.8686V58.0209H50.7526V66.5889H48.8686V62.8929H45.4006V66.5889H43.5166V58.0209ZM52.2911 58.0209H54.1751V66.5889H52.2911V58.0209ZM61.9021 65.6169C61.5661 66.0489 61.1941 66.3529 60.7861 66.5289C60.3781 66.6969 59.9661 66.7809 59.5501 66.7809C58.8941 66.7809 58.3021 66.6689 57.7741 66.4449C57.2541 66.2129 56.8141 65.8969 56.4541 65.4969C56.0941 65.0969 55.8181 64.6289 55.6261 64.0929C55.4341 63.5489 55.3381 62.9649 55.3381 62.3409C55.3381 61.7009 55.4341 61.1089 55.6261 60.5649C55.8181 60.0129 56.0941 59.5329 56.4541 59.1249C56.8141 58.7169 57.2541 58.3969 57.7741 58.1649C58.3021 57.9329 58.8941 57.8169 59.5501 57.8169C59.9901 57.8169 60.4141 57.8849 60.8221 58.0209C61.2381 58.1489 61.6101 58.3409 61.9381 58.5969C62.2741 58.8529 62.5501 59.1689 62.7661 59.5449C62.9821 59.9209 63.1141 60.3529 63.1621 60.8409H61.3621C61.2501 60.3609 61.0341 60.0009 60.7141 59.7609C60.3941 59.5209 60.0061 59.4009 59.5501 59.4009C59.1261 59.4009 58.7661 59.4849 58.4701 59.6529C58.1741 59.8129 57.9341 60.0329 57.7501 60.3129C57.5661 60.5849 57.4301 60.8969 57.3421 61.2489C57.2621 61.6009 57.2221 61.9649 57.2221 62.3409C57.2221 62.7009 57.2621 63.0529 57.3421 63.3969C57.4301 63.7329 57.5661 64.0369 57.7501 64.3089C57.9341 64.5809 58.1741 64.8009 58.4701 64.9689C58.7661 65.1289 59.1261 65.2089 59.5501 65.2089C60.1741 65.2089 60.6541 65.0529 60.9901 64.7409C61.3341 64.4209 61.5341 63.9609 61.5901 63.3609H59.6941V61.9569H63.2941V66.5889H62.0941L61.9021 65.6169ZM64.6956 58.0209H66.5796V61.3089H70.0476V58.0209H71.9316V66.5889H70.0476V62.8929H66.5796V66.5889H64.6956V58.0209ZM73.4701 58.0209H79.8781V59.6049H75.3541V61.4409H79.5061V62.9049H75.3541V65.0049H79.9741V66.5889H73.4701V58.0209ZM82.4154 63.7449C82.4154 64.0329 82.4674 64.2769 82.5714 64.4769C82.6754 64.6769 82.8114 64.8409 82.9794 64.9689C83.1554 65.0889 83.3594 65.1809 83.5914 65.2449C83.8234 65.3009 84.0634 65.3289 84.3114 65.3289C84.4794 65.3289 84.6594 65.3169 84.8514 65.2929C85.0434 65.2609 85.2234 65.2049 85.3914 65.1249C85.5594 65.0449 85.6994 64.9369 85.8114 64.8009C85.9234 64.6569 85.9794 64.4769 85.9794 64.2609C85.9794 64.0289 85.9034 63.8409 85.7514 63.6969C85.6074 63.5529 85.4154 63.4329 85.1754 63.3369C84.9354 63.2409 84.6634 63.1569 84.3594 63.0849C84.0554 63.0129 83.7474 62.9329 83.4354 62.8449C83.1154 62.7649 82.8034 62.6689 82.4994 62.5569C82.1954 62.4369 81.9234 62.2849 81.6834 62.1009C81.4434 61.9169 81.2474 61.6889 81.0954 61.4169C80.9514 61.1369 80.8794 60.8009 80.8794 60.4089C80.8794 59.9689 80.9714 59.5889 81.1554 59.2689C81.3474 58.9409 81.5954 58.6689 81.8994 58.4529C82.2034 58.2369 82.5474 58.0769 82.9314 57.9729C83.3154 57.8689 83.6994 57.8169 84.0834 57.8169C84.5314 57.8169 84.9594 57.8689 85.3674 57.9729C85.7834 58.0689 86.1514 58.2289 86.4714 58.4529C86.7914 58.6769 87.0434 58.9649 87.2274 59.3169C87.4194 59.6609 87.5154 60.0809 87.5154 60.5769H85.6914C85.6754 60.3209 85.6194 60.1089 85.5234 59.9409C85.4354 59.7729 85.3154 59.6409 85.1634 59.5449C85.0114 59.4489 84.8354 59.3809 84.6354 59.3409C84.4434 59.3009 84.2314 59.2809 83.9994 59.2809C83.8474 59.2809 83.6954 59.2969 83.5434 59.3289C83.3914 59.3609 83.2514 59.4169 83.1234 59.4969C83.0034 59.5769 82.9034 59.6769 82.8234 59.7969C82.7434 59.9169 82.7034 60.0689 82.7034 60.2529C82.7034 60.4209 82.7354 60.5569 82.7994 60.6609C82.8634 60.7649 82.9874 60.8609 83.1714 60.9489C83.3634 61.0369 83.6234 61.1249 83.9514 61.2129C84.2874 61.3009 84.7234 61.4129 85.2594 61.5489C85.4194 61.5809 85.6394 61.6409 85.9194 61.7289C86.2074 61.8089 86.4914 61.9409 86.7714 62.1249C87.0514 62.3089 87.2914 62.5569 87.4914 62.8689C87.6994 63.1729 87.8034 63.5649 87.8034 64.0449C87.8034 64.4369 87.7274 64.8009 87.5754 65.1369C87.4234 65.4729 87.1954 65.7649 86.8914 66.0129C86.5954 66.2529 86.2234 66.4409 85.7754 66.5769C85.3354 66.7129 84.8234 66.7809 84.2394 66.7809C83.7674 66.7809 83.3074 66.7209 82.8594 66.6009C82.4194 66.4889 82.0274 66.3089 81.6834 66.0609C81.3474 65.8129 81.0794 65.4969 80.8794 65.1129C80.6794 64.7289 80.5834 64.2729 80.5914 63.7449H82.4154ZM90.7004 59.6049H88.1324V58.0209H95.1524V59.6049H92.5844V66.5889H90.7004V59.6049ZM49.6077 80.3089C49.7677 80.0929 49.8957 79.8249 49.9917 79.5049C50.0877 79.1849 50.1357 78.7969 50.1357 78.3409C50.1357 77.9649 50.0917 77.6009 50.0037 77.2489C49.9237 76.8969 49.7917 76.5849 49.6077 76.3129C49.4237 76.0329 49.1837 75.8129 48.8877 75.6529C48.5917 75.4849 48.2317 75.4009 47.8077 75.4009C47.3837 75.4009 47.0237 75.4849 46.7277 75.6529C46.4317 75.8129 46.1917 76.0329 46.0077 76.3129C45.8237 76.5849 45.6877 76.8969 45.5997 77.2489C45.5197 77.6009 45.4797 77.9649 45.4797 78.3409C45.4797 78.7009 45.5197 79.0529 45.5997 79.3969C45.6877 79.7329 45.8237 80.0369 46.0077 80.3089C46.1917 80.5809 46.4317 80.8009 46.7277 80.9689C47.0237 81.1289 47.3837 81.2089 47.8077 81.2089C48.0077 81.2089 48.1597 81.2009 48.2637 81.1849C48.3677 81.1689 48.4677 81.1369 48.5637 81.0889L47.7597 80.3569L48.6357 79.4209L49.6077 80.3089ZM49.8837 82.2889C49.3157 82.6169 48.6237 82.7809 47.8077 82.7809C47.1517 82.7809 46.5597 82.6689 46.0317 82.4449C45.5117 82.2129 45.0717 81.8969 44.7117 81.4969C44.3517 81.0969 44.0757 80.6289 43.8837 80.0929C43.6917 79.5489 43.5957 78.9649 43.5957 78.3409C43.5957 77.7009 43.6917 77.1089 43.8837 76.5649C44.0757 76.0129 44.3517 75.5329 44.7117 75.1249C45.0717 74.7169 45.5117 74.3969 46.0317 74.1649C46.5597 73.9329 47.1517 73.8169 47.8077 73.8169C48.4717 73.8169 49.0637 73.9329 49.5837 74.1649C50.1037 74.3969 50.5437 74.7169 50.9037 75.1249C51.2637 75.5329 51.5397 76.0129 51.7317 76.5649C51.9237 77.1089 52.0197 77.7009 52.0197 78.3409C52.0197 78.9649 51.9237 79.5449 51.7317 80.0809C51.5397 80.6169 51.2637 81.0889 50.9037 81.4969L51.9717 82.4689L51.0957 83.3809L49.8837 82.2889ZM60.4596 79.3489C60.4596 80.5089 60.1356 81.3729 59.4876 81.9409C58.8396 82.5009 57.9436 82.7809 56.7996 82.7809C55.6396 82.7809 54.7396 82.5009 54.0996 81.9409C53.4676 81.3809 53.1516 80.5169 53.1516 79.3489V74.0209H55.0356V79.3489C55.0356 79.5809 55.0556 79.8089 55.0956 80.0329C55.1356 80.2569 55.2196 80.4569 55.3476 80.6329C55.4756 80.8009 55.6516 80.9409 55.8756 81.0529C56.1076 81.1569 56.4156 81.2089 56.7996 81.2089C57.4716 81.2089 57.9356 81.0609 58.1916 80.7649C58.4476 80.4609 58.5756 79.9889 58.5756 79.3489V74.0209H60.4596V79.3489ZM64.1221 79.2769H66.3421L65.2621 76.1329H65.2381L64.1221 79.2769ZM64.3021 74.0209H66.2341L69.4381 82.5889H67.4821L66.8341 80.6809H63.6301L62.9581 82.5889H61.0621L64.3021 74.0209ZM70.0569 74.0209H71.9409V81.0049H76.1169V82.5889H70.0569V74.0209ZM77.0502 74.0209H78.9342V82.5889H77.0502V74.0209ZM82.3653 75.6049H79.7973V74.0209H86.8173V75.6049H84.2493V82.5889H82.3653V75.6049ZM89.9052 79.2529L86.7612 74.0209H88.8732L90.8772 77.4049L92.8692 74.0209H94.9692L91.7892 79.3009V82.5889H89.9052V79.2529Z" fill="white"/>
</svg>
