<svg width="791" height="927" viewBox="0 0 791 927" fill="none" xmlns="http://www.w3.org/2000/svg">
<path d="M612.802 83.3655L664.665 51.9885L633.331 58.4803L623.607 50.9065L603.078 63.8901L595.514 87.6933L564.18 93.1032L564.18 120.152L546.893 103.923L511.237 98.513L511.237 83.3655L523.122 67.136L523.122 45.4966L488.547 42.2507L490.708 17.3655L480.984 1.13598L457.213 6.54581L457.213 19.5294L429.121 9.7917L410.752 19.5294L416.155 42.2507L416.155 58.4802L431.281 82.2835L422.638 111.497L393.465 130.972L368.614 133.136L357.809 103.923L331.877 108.251L331.877 130.972L315.67 142.874L315.67 162.349L305.946 172.087L277.854 172.087L272.451 149.365L238.956 122.316L231.393 127.726L203.301 115.824L197.898 138.546L200.059 142.874L200.059 162.349L221.669 198.054L227.071 215.365L214.105 248.906L210.864 212.119L194.657 186.152L169.806 178.579L169.806 145.038L153.599 120.152L140.633 127.726L134.15 108.251L103.897 122.316L103.897 138.546L55.2751 149.365L64.9994 168.841L46.6313 181.824L69.3213 217.529L58.5165 248.906L46.6312 238.087L35.8265 245.66L23.9412 203.464L-0.909761 186.152L-13.8755 149.365L-33.3241 133.136L-62.497 145.037L-62.497 164.513L-48.4508 208.874L-44.129 258.644L-52.7728 287.857L-89.509 290.021L-97.0723 266.218L-129.487 299.759L-133.809 324.644L-123.004 360.349L-129.487 365.759L-139.211 337.628L-146.774 333.3L-143.533 374.414L-154.338 400.382L-154.338 341.955L-168.384 324.644L-189.993 337.628L-168.384 312.742L-168.384 292.185L-189.993 303.005L-182.43 280.283L-215.925 274.873L-218.086 245.66L-205.12 260.808L-186.752 262.972L-175.947 248.906L-186.752 238.087L-168.384 221.857L-170.545 186.152L-186.752 186.152L-209.442 181.824L-170.545 166.677L-199.718 162.349L-199.718 141.792L-225.649 152.611L-225.649 112.578L-240.776 112.578L-252.661 85.5293L-283.995 92.0211L-286.156 60.644L-302.363 29.267L-317.49 33.5948L-331.536 26.0211L-334.778 33.5948L-346.663 41.1686L-366.111 26.0211L-395.284 45.4965L-383.399 45.4965L-383.399 57.3981L-401.767 66.0538L-385.56 79.0374L-359.629 63.8899L-355.307 74.7096L-325.053 88.7752L-331.536 97.4309L-349.904 88.7752L-376.916 97.4309L-359.629 125.562L-313.168 148.283L-319.651 158.021L-304.524 179.66L-299.122 189.398L-311.007 221.857L-311.007 199.136L-322.892 175.332L-331.536 186.152L-331.536 172.087L-338.019 158.021L-352.065 154.775L-359.629 195.89L-359.629 158.021L-373.675 166.677L-383.399 141.792L-401.767 125.562L-438.503 110.414L-463.354 136.382L-436.342 162.349L-475.24 148.283L-479.562 166.677L-452.55 195.89L-406.089 216.447L-452.55 208.873L-475.24 193.726L-484.964 195.89L-484.964 219.693L-469.837 234.841L-449.308 241.332L-416.894 241.332L-406.089 248.906L-447.147 251.07L-434.182 265.136L-411.491 265.136L-452.55 287.857L-454.711 259.726L-481.723 246.742L-514.137 227.267L-511.976 246.742L-511.976 262.972L-500.091 275.955L-514.137 275.955L-484.964 317.07L-546.551 280.283L-548.712 304.087L-566 321.398L-529.264 319.234L-500.091 327.89L-500.091 346.283L-469.837 349.529L-462.274 333.3L-429.86 321.398L-408.25 321.398L-403.928 300.841L-387.721 308.414L-359.629 287.857L-354.226 294.349L-367.192 310.578L-348.824 317.07L-348.824 280.283L-338.019 317.07L-326.134 308.414L-322.892 296.513L-315.329 319.234L-290.478 296.513L-305.605 327.89L-279.673 339.791L-268.868 310.578L-228.891 344.119L-249.42 344.119L-249.42 353.857L-277.512 374.414L-301.283 379.824L-313.168 394.972L-326.134 419.857L-283.995 431.759L-255.903 437.169L-237.535 419.857L-221.327 419.857L-237.535 447.988L-228.891 459.89L-259.144 462.054L-301.283 450.152L-332.617 457.726L-326.134 476.119L-348.824 457.726L-348.824 442.578L-372.594 471.791L-408.25 467.464L-408.25 491.267L-416.894 481.529L-438.503 479.365L-457.952 501.005L-484.964 486.939L-509.815 501.005L-495.769 537.791L-481.723 548.611L-470.918 545.365L-460.113 545.365L-451.469 525.89L-432.021 531.3L-425.538 517.234L-382.319 529.136L-352.065 529.136L-335.858 537.791L-314.249 525.89L-295.88 537.791L-301.283 555.103L-301.283 569.168L-301.283 592.972L-283.995 592.972L-283.995 618.939L-268.868 618.939L-261.305 605.955L-224.569 586.48L-228.891 603.791L-248.339 611.365L-261.305 638.414L-242.937 641.66L-253.742 655.726L-242.937 658.972L-228.891 653.562L-217.005 641.66L-208.362 641.66L-186.752 643.824L-186.752 651.398L-200.798 655.726L-224.569 655.726L-228.891 664.382L-236.454 670.873L-251.581 670.873L-251.581 682.775L-239.696 690.349L-224.569 706.578L-239.696 706.578L-239.696 718.48L-275.351 750.939L-303.444 750.939L-303.444 761.759L-322.892 761.759L-326.134 744.447L-346.663 730.382L-349.904 744.447L-352.065 759.595L-343.421 775.824L-349.904 808.283L-339.1 808.283L-318.57 808.283L-307.766 795.3L-292.639 795.3L-268.868 802.873L-248.339 802.873L-228.891 786.644L-211.603 805.037L-175.947 790.972L-130.567 801.791L-86.2676 833.168L-30.0828 885.103L21.7802 885.103L96.3332 925.136L98.4941 913.234L131.989 921.89L151.438 925.136L201.14 904.578L201.14 878.611L214.105 904.578L236.795 885.103L273.532 836.414L304.865 819.103L340.521 815.857L331.877 809.365L336.199 793.136L354.567 793.136L364.292 782.316L385.901 813.693L391.304 799.628L408.591 799.628L447.489 754.185L493.949 711.988L522.042 692.513L547.973 689.267L564.18 665.464L583.629 676.283L599.836 670.873L611.721 670.873L641.975 634.087L665.745 643.824L674.389 610.283L658.182 596.218L678.711 586.48L668.987 572.415L697.079 574.578L668.987 531.3L690.596 556.185L720.85 556.185L732.735 547.529L720.85 531.3L742.459 528.054L760.827 506.415L725.171 489.103L769.471 495.595L739.218 465.3L700.321 458.808L746.781 455.562L756.505 471.792L775.954 471.792L790 452.316L790 420.939L772.713 430.677L775.954 411.201L739.218 403.628L769.471 403.628L782.437 385.234L769.471 379.824L732.735 385.234L765.149 370.087L750.022 361.431L772.713 357.103L778.115 318.152L765.149 303.005L753.264 312.742L750.022 305.169L746.781 284.611L732.735 290.021L690.596 278.12L683.033 258.644L690.596 231.595L645.216 244.579L627.928 255.398L627.928 226.185L649.538 207.792L657.101 181.824L645.216 154.775L598.756 159.103L598.756 138.546L586.87 138.546L612.802 115.824L612.802 83.3655Z" stroke="black" stroke-opacity="0.1" stroke-width="2"/>
</svg>
